<svg width="24" height="24" viewBox="0 0 24 24" fill="none" xmlns="http://www.w3.org/2000/svg">
<path d="M9.04887 1.9L9.04907 1.9L16.7362 1.90001C18.033 1.90001 19.1 2.96148 19.1 4.25872V15.4537V15.4541C19.0992 15.6549 19.0191 15.8471 18.8771 15.9891L18.8771 15.9891C18.7351 16.1311 18.5429 16.2112 18.3421 16.212C18.1404 16.2128 17.9465 16.1334 17.8033 15.9913C17.66 15.8491 17.5791 15.6559 17.5783 15.4542L17.5781 15.4125L17.5784 15.4122V4.25862C17.5784 3.78279 17.2149 3.42163 16.7362 3.42163H9.04909H9.04889C8.84689 3.42123 8.65326 3.34062 8.51081 3.19724C8.3683 3.05389 8.28875 2.85989 8.28955 2.65787C8.29035 2.45693 8.37056 2.26438 8.51296 2.12236L9.04887 1.9ZM9.04887 1.9C8.8479 1.9004 8.65525 1.98035 8.513 2.12232L9.04887 1.9ZM6.25871 4.68527C4.96164 4.68527 3.9 5.74704 3.9 7.04399V18.239C3.9 19.5357 4.96122 20.6028 6.25871 20.6028H13.9509C15.248 20.6028 16.3147 19.536 16.3147 18.239V7.04399C16.3147 5.74674 15.2477 4.68527 13.9509 4.68527H6.25871ZM6.25871 6.20688H13.9509C14.4294 6.20688 14.7918 6.56786 14.7918 7.04387V18.2389C14.7918 18.7154 14.4288 19.0798 13.9509 19.0798H6.25871C5.78058 19.0798 5.41653 18.7152 5.41653 18.2389V7.04387C5.41653 6.56804 5.78005 6.20688 6.25871 6.20688Z" fill="black" stroke="black" stroke-width="0.2"/>
</svg>
