<svg width="1036" height="411" viewBox="0 0 1036 411" fill="none" xmlns="http://www.w3.org/2000/svg">
<rect width="1036" height="411" fill="white"/>
<path d="M24.8963 74V52.1818H39.598V55.9851H29.5092V61.1839H38.8416V64.9872H29.5092V70.1967H39.6406V74H24.8963ZM47.7186 64.5398V74H43.1802V57.6364H47.5055V60.5234H47.6973C48.0595 59.5717 48.6667 58.8189 49.519 58.2649C50.3713 57.7038 51.4047 57.4233 52.6191 57.4233C53.7555 57.4233 54.7463 57.6719 55.5914 58.169C56.4366 58.6662 57.0936 59.3764 57.5623 60.2997C58.0311 61.2159 58.2654 62.3097 58.2654 63.581V74H53.7271V64.3906C53.7342 63.3892 53.4785 62.608 52.9601 62.0469C52.4416 61.4787 51.7278 61.1946 50.8187 61.1946C50.2079 61.1946 49.6681 61.326 49.1994 61.5888C48.7377 61.8516 48.3755 62.2351 48.1127 62.7393C47.8571 63.2365 47.7257 63.8366 47.7186 64.5398ZM70.5462 57.6364V61.0455H60.6918V57.6364H70.5462ZM62.929 53.7159H67.4673V68.9716C67.4673 69.3906 67.5313 69.7173 67.6591 69.9517C67.7869 70.179 67.9645 70.3388 68.1918 70.4311C68.4261 70.5234 68.696 70.5696 69.0014 70.5696C69.2145 70.5696 69.4276 70.5518 69.6406 70.5163C69.8537 70.4737 70.017 70.4418 70.1307 70.4205L70.8445 73.7976C70.6172 73.8686 70.2976 73.9503 69.8857 74.0426C69.4737 74.142 68.973 74.2024 68.3835 74.2237C67.2898 74.2663 66.331 74.1207 65.5071 73.7869C64.6903 73.4531 64.0547 72.9347 63.6001 72.2315C63.1456 71.5284 62.9219 70.6406 62.929 69.5682V53.7159ZM80.7841 74.3196C79.1009 74.3196 77.652 73.9787 76.4375 73.2969C75.2301 72.608 74.2997 71.6349 73.6463 70.3778C72.9929 69.1136 72.6662 67.6186 72.6662 65.8928C72.6662 64.2095 72.9929 62.7322 73.6463 61.4609C74.2997 60.1896 75.2195 59.1989 76.4055 58.4886C77.5987 57.7784 78.9979 57.4233 80.603 57.4233C81.6825 57.4233 82.6875 57.5973 83.6179 57.9453C84.5554 58.2862 85.3722 58.8011 86.0682 59.4901C86.7713 60.179 87.3182 61.0455 87.7088 62.0895C88.0994 63.1264 88.2947 64.3409 88.2947 65.733V66.9794H74.4773V64.1669H84.0227C84.0227 63.5135 83.8807 62.9347 83.5966 62.4304C83.3125 61.9261 82.9183 61.532 82.4141 61.2479C81.9169 60.9567 81.3381 60.8111 80.6776 60.8111C79.9886 60.8111 79.3778 60.9709 78.8452 61.2905C78.3196 61.603 77.9077 62.0256 77.6094 62.5582C77.3111 63.0838 77.1584 63.6697 77.1513 64.3161V66.9901C77.1513 67.7997 77.3004 68.4993 77.5987 69.0888C77.9041 69.6783 78.3338 70.1328 78.8878 70.4524C79.4418 70.772 80.0987 70.9318 80.8587 70.9318C81.3629 70.9318 81.8246 70.8608 82.2436 70.7188C82.6626 70.5767 83.0213 70.3636 83.3196 70.0795C83.6179 69.7955 83.8452 69.4474 84.0014 69.0355L88.1989 69.3125C87.9858 70.321 87.549 71.2017 86.8885 71.9545C86.2351 72.7003 85.3899 73.2827 84.353 73.7017C83.3232 74.1136 82.1335 74.3196 80.7841 74.3196ZM91.2564 74V57.6364H95.6562V60.4915H95.8267C96.125 59.4759 96.6257 58.7088 97.3288 58.1903C98.032 57.6648 98.8416 57.402 99.7578 57.402C99.9851 57.402 100.23 57.4162 100.493 57.4446C100.756 57.473 100.987 57.5121 101.185 57.5618V61.5888C100.972 61.5249 100.678 61.468 100.301 61.4183C99.9247 61.3686 99.5803 61.3438 99.2678 61.3438C98.6001 61.3438 98.0036 61.4893 97.478 61.7805C96.9595 62.0646 96.5476 62.4624 96.2422 62.9737C95.9439 63.4851 95.7947 64.0746 95.7947 64.7422V74H91.2564ZM124.037 52.1818H128.65V66.3509C128.65 67.9418 128.27 69.3338 127.51 70.527C126.757 71.7202 125.702 72.6506 124.346 73.3182C122.989 73.9787 121.409 74.3089 119.605 74.3089C117.794 74.3089 116.21 73.9787 114.854 73.3182C113.497 72.6506 112.442 71.7202 111.69 70.527C110.937 69.3338 110.56 67.9418 110.56 66.3509V52.1818H115.173V65.9567C115.173 66.7876 115.354 67.5263 115.717 68.1726C116.086 68.8189 116.604 69.3267 117.272 69.696C117.94 70.0653 118.717 70.25 119.605 70.25C120.5 70.25 121.278 70.0653 121.938 69.696C122.606 69.3267 123.121 68.8189 123.483 68.1726C123.852 67.5263 124.037 66.7876 124.037 65.9567V52.1818ZM145.975 62.3026L141.82 62.5582C141.749 62.2031 141.596 61.8835 141.362 61.5994C141.128 61.3082 140.819 61.0774 140.435 60.907C140.059 60.7294 139.608 60.6406 139.082 60.6406C138.379 60.6406 137.786 60.7898 137.303 61.0881C136.82 61.3793 136.579 61.7699 136.579 62.2599C136.579 62.6506 136.735 62.9808 137.047 63.2507C137.36 63.5206 137.896 63.7372 138.656 63.9006L141.618 64.4972C143.209 64.8239 144.395 65.3494 145.176 66.0739C145.957 66.7983 146.348 67.75 146.348 68.929C146.348 70.0014 146.032 70.9425 145.4 71.7521C144.775 72.5618 143.915 73.1939 142.822 73.6484C141.735 74.0959 140.481 74.3196 139.061 74.3196C136.895 74.3196 135.169 73.8686 133.883 72.9666C132.605 72.0575 131.856 70.8217 131.635 69.2592L136.099 69.0249C136.234 69.6854 136.561 70.1896 137.079 70.5376C137.598 70.8786 138.262 71.049 139.072 71.049C139.867 71.049 140.506 70.8963 140.989 70.5909C141.479 70.2784 141.728 69.8771 141.735 69.3871C141.728 68.9751 141.554 68.6378 141.213 68.375C140.872 68.1051 140.346 67.8991 139.636 67.7571L136.802 67.1925C135.204 66.8729 134.015 66.3189 133.233 65.5305C132.459 64.7422 132.072 63.7372 132.072 62.5156C132.072 61.4645 132.356 60.5589 132.925 59.799C133.5 59.0391 134.306 58.4531 135.343 58.0412C136.387 57.6293 137.608 57.4233 139.008 57.4233C141.074 57.4233 142.701 57.8601 143.887 58.7337C145.08 59.6072 145.776 60.7969 145.975 62.3026ZM156.663 74.3196C154.98 74.3196 153.531 73.9787 152.316 73.2969C151.109 72.608 150.179 71.6349 149.525 70.3778C148.872 69.1136 148.545 67.6186 148.545 65.8928C148.545 64.2095 148.872 62.7322 149.525 61.4609C150.179 60.1896 151.098 59.1989 152.284 58.4886C153.478 57.7784 154.877 57.4233 156.482 57.4233C157.561 57.4233 158.566 57.5973 159.497 57.9453C160.434 58.2862 161.251 58.8011 161.947 59.4901C162.65 60.179 163.197 61.0455 163.588 62.0895C163.978 63.1264 164.174 64.3409 164.174 65.733V66.9794H150.356V64.1669H159.902C159.902 63.5135 159.76 62.9347 159.475 62.4304C159.191 61.9261 158.797 61.532 158.293 61.2479C157.796 60.9567 157.217 60.8111 156.556 60.8111C155.868 60.8111 155.257 60.9709 154.724 61.2905C154.199 61.603 153.787 62.0256 153.488 62.5582C153.19 63.0838 153.037 63.6697 153.03 64.3161V66.9901C153.03 67.7997 153.179 68.4993 153.478 69.0888C153.783 69.6783 154.213 70.1328 154.767 70.4524C155.321 70.772 155.978 70.9318 156.738 70.9318C157.242 70.9318 157.703 70.8608 158.123 70.7188C158.542 70.5767 158.9 70.3636 159.199 70.0795C159.497 69.7955 159.724 69.4474 159.88 69.0355L164.078 69.3125C163.865 70.321 163.428 71.2017 162.767 71.9545C162.114 72.7003 161.269 73.2827 160.232 73.7017C159.202 74.1136 158.012 74.3196 156.663 74.3196ZM167.135 74V57.6364H171.535V60.4915H171.706C172.004 59.4759 172.505 58.7088 173.208 58.1903C173.911 57.6648 174.721 57.402 175.637 57.402C175.864 57.402 176.109 57.4162 176.372 57.4446C176.635 57.473 176.865 57.5121 177.064 57.5618V61.5888C176.851 61.5249 176.556 61.468 176.18 61.4183C175.804 61.3686 175.459 61.3438 175.147 61.3438C174.479 61.3438 173.882 61.4893 173.357 61.7805C172.838 62.0646 172.426 62.4624 172.121 62.9737C171.823 63.4851 171.674 64.0746 171.674 64.7422V74H167.135ZM183.949 64.5398V74H179.411V57.6364H183.736V60.5234H183.928C184.29 59.5717 184.897 58.8189 185.749 58.2649C186.602 57.7038 187.635 57.4233 188.85 57.4233C189.986 57.4233 190.977 57.6719 191.822 58.169C192.667 58.6662 193.324 59.3764 193.793 60.2997C194.262 61.2159 194.496 62.3097 194.496 63.581V74H189.958V64.3906C189.965 63.3892 189.709 62.608 189.191 62.0469C188.672 61.4787 187.958 61.1946 187.049 61.1946C186.438 61.1946 185.899 61.326 185.43 61.5888C184.968 61.8516 184.606 62.2351 184.343 62.7393C184.088 63.2365 183.956 63.8366 183.949 64.5398ZM202.739 74.3089C201.695 74.3089 200.765 74.1278 199.948 73.7656C199.131 73.3963 198.485 72.853 198.009 72.1357C197.54 71.4112 197.306 70.5092 197.306 69.4297C197.306 68.5206 197.473 67.7571 197.806 67.1392C198.14 66.5213 198.595 66.0241 199.17 65.6477C199.745 65.2713 200.399 64.9872 201.13 64.7955C201.869 64.6037 202.643 64.4688 203.453 64.3906C204.404 64.2912 205.172 64.1989 205.754 64.1136C206.336 64.0213 206.759 63.8864 207.022 63.7088C207.284 63.5312 207.416 63.2685 207.416 62.9205V62.8565C207.416 62.1818 207.203 61.6598 206.777 61.2905C206.358 60.9212 205.761 60.7365 204.987 60.7365C204.17 60.7365 203.52 60.9176 203.037 61.2798C202.554 61.6349 202.235 62.0824 202.078 62.6222L197.881 62.2812C198.094 61.2869 198.513 60.4276 199.138 59.7031C199.763 58.9716 200.569 58.4105 201.556 58.0199C202.551 57.6222 203.701 57.4233 205.008 57.4233C205.917 57.4233 206.787 57.5298 207.618 57.7429C208.456 57.956 209.199 58.2862 209.845 58.7337C210.498 59.1811 211.013 59.7564 211.39 60.4595C211.766 61.1555 211.954 61.9901 211.954 62.9631V74H207.65V71.7308H207.522C207.26 72.2422 206.908 72.6932 206.468 73.0838C206.027 73.4673 205.498 73.7692 204.88 73.9893C204.262 74.2024 203.549 74.3089 202.739 74.3089ZM204.039 71.1768C204.706 71.1768 205.296 71.0455 205.807 70.7827C206.319 70.5128 206.72 70.1506 207.011 69.696C207.302 69.2415 207.448 68.7266 207.448 68.1513V66.4148C207.306 66.5071 207.11 66.5923 206.862 66.6705C206.62 66.7415 206.347 66.8089 206.042 66.8729C205.736 66.9297 205.431 66.983 205.125 67.0327C204.82 67.0753 204.543 67.1143 204.294 67.1499C203.762 67.228 203.297 67.3523 202.899 67.5227C202.501 67.6932 202.192 67.924 201.972 68.2152C201.752 68.4993 201.642 68.8544 201.642 69.2805C201.642 69.8984 201.865 70.3707 202.313 70.6974C202.767 71.017 203.343 71.1768 204.039 71.1768ZM215.475 74V57.6364H219.8V60.5234H219.992C220.333 59.5646 220.901 58.8082 221.697 58.2543C222.492 57.7003 223.444 57.4233 224.552 57.4233C225.674 57.4233 226.629 57.7038 227.418 58.2649C228.206 58.8189 228.732 59.5717 228.994 60.5234H229.165C229.499 59.5859 230.102 58.8366 230.976 58.2756C231.857 57.7074 232.897 57.4233 234.097 57.4233C235.624 57.4233 236.864 57.9098 237.815 58.8828C238.774 59.8487 239.254 61.2195 239.254 62.995V74H234.726V63.8899C234.726 62.9808 234.484 62.299 234.001 61.8445C233.518 61.3899 232.915 61.1626 232.19 61.1626C231.366 61.1626 230.724 61.4254 230.262 61.951C229.8 62.4695 229.57 63.1548 229.57 64.0071V74H225.17V63.794C225.17 62.9915 224.939 62.3523 224.477 61.8764C224.023 61.4006 223.423 61.1626 222.677 61.1626C222.173 61.1626 221.718 61.2905 221.313 61.5462C220.915 61.7947 220.599 62.1463 220.365 62.6009C220.131 63.0483 220.013 63.5739 220.013 64.1776V74H215.475ZM250.296 74.3196C248.613 74.3196 247.164 73.9787 245.949 73.2969C244.742 72.608 243.811 71.6349 243.158 70.3778C242.505 69.1136 242.178 67.6186 242.178 65.8928C242.178 64.2095 242.505 62.7322 243.158 61.4609C243.811 60.1896 244.731 59.1989 245.917 58.4886C247.11 57.7784 248.51 57.4233 250.115 57.4233C251.194 57.4233 252.199 57.5973 253.13 57.9453C254.067 58.2862 254.884 58.8011 255.58 59.4901C256.283 60.179 256.83 61.0455 257.221 62.0895C257.611 63.1264 257.806 64.3409 257.806 65.733V66.9794H243.989V64.1669H253.534C253.534 63.5135 253.392 62.9347 253.108 62.4304C252.824 61.9261 252.43 61.532 251.926 61.2479C251.429 60.9567 250.85 60.8111 250.189 60.8111C249.5 60.8111 248.89 60.9709 248.357 61.2905C247.831 61.603 247.419 62.0256 247.121 62.5582C246.823 63.0838 246.67 63.6697 246.663 64.3161V66.9901C246.663 67.7997 246.812 68.4993 247.11 69.0888C247.416 69.6783 247.846 70.1328 248.4 70.4524C248.953 70.772 249.61 70.9318 250.37 70.9318C250.875 70.9318 251.336 70.8608 251.755 70.7188C252.174 70.5767 252.533 70.3636 252.831 70.0795C253.13 69.7955 253.357 69.4474 253.513 69.0355L257.711 69.3125C257.498 70.321 257.061 71.2017 256.4 71.9545C255.747 72.7003 254.902 73.2827 253.865 73.7017C252.835 74.1136 251.645 74.3196 250.296 74.3196ZM274.402 74.3196C272.896 74.3196 271.596 74.0497 270.503 73.5099C269.409 72.9702 268.567 72.2386 267.978 71.3153C267.395 70.3849 267.104 69.348 267.104 68.2045C267.104 67.3523 267.275 66.5959 267.616 65.9354C267.956 65.2749 268.432 64.6676 269.043 64.1136C269.654 63.5526 270.364 62.995 271.174 62.4411L275.403 59.6605C275.95 59.3125 276.351 58.9467 276.607 58.5632C276.863 58.1726 276.991 57.75 276.991 57.2955C276.991 56.8622 276.817 56.4609 276.469 56.0916C276.121 55.7223 275.627 55.5412 274.988 55.5483C274.562 55.5483 274.192 55.6442 273.88 55.8359C273.567 56.0206 273.322 56.2656 273.145 56.571C272.974 56.8693 272.889 57.2031 272.889 57.5724C272.889 58.027 273.017 58.4886 273.273 58.9574C273.528 59.4261 273.869 59.9233 274.295 60.4489C274.721 60.9673 275.187 61.5284 275.691 62.1321L286.035 74H281.305L272.676 64.3906C272.108 63.7443 271.54 63.0696 270.971 62.3665C270.41 61.6562 269.942 60.9034 269.565 60.108C269.189 59.3054 269.001 58.4354 269.001 57.4979C269.001 56.4396 269.246 55.4879 269.736 54.6428C270.233 53.7976 270.929 53.13 271.824 52.6399C272.719 52.1428 273.763 51.8942 274.956 51.8942C276.121 51.8942 277.126 52.1321 277.971 52.608C278.823 53.0767 279.476 53.7017 279.931 54.483C280.393 55.2571 280.623 56.1094 280.623 57.0398C280.623 58.0696 280.368 59.0036 279.856 59.8416C279.352 60.6726 278.642 61.4183 277.726 62.0788L273.273 65.2855C272.669 65.7259 272.221 66.1768 271.93 66.6385C271.646 67.093 271.504 67.5298 271.504 67.9489C271.504 68.4673 271.632 68.9325 271.888 69.3445C272.143 69.7564 272.506 70.0831 272.974 70.3246C273.443 70.5589 273.993 70.6761 274.626 70.6761C275.393 70.6761 276.149 70.5021 276.895 70.1541C277.648 69.799 278.329 69.2983 278.94 68.652C279.558 67.9986 280.052 67.2244 280.421 66.3295C280.79 65.4347 280.975 64.4439 280.975 63.3572H284.736C284.736 64.6925 284.59 65.8963 284.299 66.9688C284.008 68.0341 283.603 68.9645 283.084 69.7599C282.566 70.5483 281.973 71.1946 281.305 71.6989C281.092 71.8338 280.886 71.9616 280.687 72.0824C280.488 72.2031 280.282 72.331 280.069 72.4659C279.26 73.1193 278.354 73.5916 277.353 73.8828C276.358 74.174 275.375 74.3196 274.402 74.3196ZM294.955 74V52.1818H303.563C305.218 52.1818 306.627 52.4979 307.792 53.13C308.957 53.755 309.845 54.625 310.456 55.7401C311.074 56.848 311.382 58.1264 311.382 59.5753C311.382 61.0241 311.07 62.3026 310.445 63.4105C309.82 64.5185 308.914 65.3814 307.728 65.9993C306.549 66.6172 305.122 66.9261 303.446 66.9261H297.959V63.2294H302.7C303.588 63.2294 304.319 63.0767 304.895 62.7713C305.477 62.4588 305.91 62.0291 306.194 61.4822C306.485 60.9283 306.631 60.2926 306.631 59.5753C306.631 58.8509 306.485 58.2187 306.194 57.679C305.91 57.1321 305.477 56.7095 304.895 56.4112C304.312 56.1058 303.574 55.9531 302.679 55.9531H299.568V74H294.955ZM318.52 74.3089C317.476 74.3089 316.546 74.1278 315.729 73.7656C314.912 73.3963 314.266 72.853 313.79 72.1357C313.321 71.4112 313.087 70.5092 313.087 69.4297C313.087 68.5206 313.254 67.7571 313.588 67.1392C313.922 66.5213 314.376 66.0241 314.951 65.6477C315.527 65.2713 316.18 64.9872 316.912 64.7955C317.65 64.6037 318.424 64.4688 319.234 64.3906C320.186 64.2912 320.953 64.1989 321.535 64.1136C322.118 64.0213 322.54 63.8864 322.803 63.7088C323.066 63.5312 323.197 63.2685 323.197 62.9205V62.8565C323.197 62.1818 322.984 61.6598 322.558 61.2905C322.139 60.9212 321.542 60.7365 320.768 60.7365C319.951 60.7365 319.301 60.9176 318.819 61.2798C318.336 61.6349 318.016 62.0824 317.86 62.6222L313.662 62.2812C313.875 61.2869 314.294 60.4276 314.919 59.7031C315.544 58.9716 316.35 58.4105 317.338 58.0199C318.332 57.6222 319.483 57.4233 320.789 57.4233C321.699 57.4233 322.569 57.5298 323.4 57.7429C324.238 57.956 324.98 58.2862 325.626 58.7337C326.279 59.1811 326.794 59.7564 327.171 60.4595C327.547 61.1555 327.735 61.9901 327.735 62.9631V74H323.431V71.7308H323.304C323.041 72.2422 322.689 72.6932 322.249 73.0838C321.809 73.4673 321.279 73.7692 320.662 73.9893C320.044 74.2024 319.33 74.3089 318.52 74.3089ZM319.82 71.1768C320.488 71.1768 321.077 71.0455 321.588 70.7827C322.1 70.5128 322.501 70.1506 322.792 69.696C323.083 69.2415 323.229 68.7266 323.229 68.1513V66.4148C323.087 66.5071 322.892 66.5923 322.643 66.6705C322.402 66.7415 322.128 66.8089 321.823 66.8729C321.517 66.9297 321.212 66.983 320.907 67.0327C320.601 67.0753 320.324 67.1143 320.076 67.1499C319.543 67.228 319.078 67.3523 318.68 67.5227C318.282 67.6932 317.973 67.924 317.753 68.2152C317.533 68.4993 317.423 68.8544 317.423 69.2805C317.423 69.8984 317.647 70.3707 318.094 70.6974C318.549 71.017 319.124 71.1768 319.82 71.1768ZM344.871 62.3026L340.717 62.5582C340.646 62.2031 340.493 61.8835 340.259 61.5994C340.024 61.3082 339.715 61.0774 339.332 60.907C338.955 60.7294 338.504 60.6406 337.979 60.6406C337.276 60.6406 336.683 60.7898 336.2 61.0881C335.717 61.3793 335.475 61.7699 335.475 62.2599C335.475 62.6506 335.631 62.9808 335.944 63.2507C336.256 63.5206 336.793 63.7372 337.553 63.9006L340.514 64.4972C342.105 64.8239 343.291 65.3494 344.072 66.0739C344.854 66.7983 345.244 67.75 345.244 68.929C345.244 70.0014 344.928 70.9425 344.296 71.7521C343.671 72.5618 342.812 73.1939 341.718 73.6484C340.631 74.0959 339.378 74.3196 337.957 74.3196C335.791 74.3196 334.065 73.8686 332.78 72.9666C331.501 72.0575 330.752 70.8217 330.532 69.2592L334.996 69.0249C335.131 69.6854 335.457 70.1896 335.976 70.5376C336.494 70.8786 337.158 71.049 337.968 71.049C338.763 71.049 339.403 70.8963 339.886 70.5909C340.376 70.2784 340.624 69.8771 340.631 69.3871C340.624 68.9751 340.45 68.6378 340.109 68.375C339.768 68.1051 339.243 67.8991 338.533 67.7571L335.699 67.1925C334.101 66.8729 332.911 66.3189 332.13 65.5305C331.356 64.7422 330.969 63.7372 330.969 62.5156C330.969 61.4645 331.253 60.5589 331.821 59.799C332.396 59.0391 333.202 58.4531 334.239 58.0412C335.283 57.6293 336.505 57.4233 337.904 57.4233C339.971 57.4233 341.597 57.8601 342.783 58.7337C343.977 59.6072 344.673 60.7969 344.871 62.3026ZM361.717 62.3026L357.562 62.5582C357.491 62.2031 357.339 61.8835 357.104 61.5994C356.87 61.3082 356.561 61.0774 356.177 60.907C355.801 60.7294 355.35 60.6406 354.824 60.6406C354.121 60.6406 353.528 60.7898 353.045 61.0881C352.562 61.3793 352.321 61.7699 352.321 62.2599C352.321 62.6506 352.477 62.9808 352.79 63.2507C353.102 63.5206 353.638 63.7372 354.398 63.9006L357.36 64.4972C358.951 64.8239 360.137 65.3494 360.918 66.0739C361.699 66.7983 362.09 67.75 362.09 68.929C362.09 70.0014 361.774 70.9425 361.142 71.7521C360.517 72.5618 359.657 73.1939 358.564 73.6484C357.477 74.0959 356.224 74.3196 354.803 74.3196C352.637 74.3196 350.911 73.8686 349.626 72.9666C348.347 72.0575 347.598 70.8217 347.378 69.2592L351.841 69.0249C351.976 69.6854 352.303 70.1896 352.822 70.5376C353.34 70.8786 354.004 71.049 354.814 71.049C355.609 71.049 356.248 70.8963 356.731 70.5909C357.221 70.2784 357.47 69.8771 357.477 69.3871C357.47 68.9751 357.296 68.6378 356.955 68.375C356.614 68.1051 356.089 67.8991 355.378 67.7571L352.545 67.1925C350.947 66.8729 349.757 66.3189 348.976 65.5305C348.202 64.7422 347.814 63.7372 347.814 62.5156C347.814 61.4645 348.099 60.5589 348.667 59.799C349.242 59.0391 350.048 58.4531 351.085 58.0412C352.129 57.6293 353.351 57.4233 354.75 57.4233C356.817 57.4233 358.443 57.8601 359.629 58.7337C360.822 59.6072 361.518 60.7969 361.717 62.3026ZM368.176 74L363.723 57.6364H368.314L370.85 68.6307H370.999L373.641 57.6364H378.147L380.832 68.5668H380.971L383.463 57.6364H388.044L383.602 74H378.797L375.985 63.7088H375.782L372.97 74H368.176ZM397.449 74.3196C395.794 74.3196 394.363 73.968 393.155 73.2649C391.955 72.5547 391.028 71.5675 390.375 70.3033C389.721 69.032 389.395 67.5582 389.395 65.8821C389.395 64.1918 389.721 62.7145 390.375 61.4503C391.028 60.179 391.955 59.1918 393.155 58.4886C394.363 57.7784 395.794 57.4233 397.449 57.4233C399.104 57.4233 400.531 57.7784 401.731 58.4886C402.939 59.1918 403.869 60.179 404.523 61.4503C405.176 62.7145 405.503 64.1918 405.503 65.8821C405.503 67.5582 405.176 69.032 404.523 70.3033C403.869 71.5675 402.939 72.5547 401.731 73.2649C400.531 73.968 399.104 74.3196 397.449 74.3196ZM397.47 70.804C398.223 70.804 398.851 70.5909 399.356 70.1648C399.86 69.7315 400.24 69.142 400.496 68.3963C400.758 67.6506 400.89 66.8018 400.89 65.8501C400.89 64.8984 400.758 64.0497 400.496 63.304C400.24 62.5582 399.86 61.9687 399.356 61.5355C398.851 61.1023 398.223 60.8857 397.47 60.8857C396.71 60.8857 396.071 61.1023 395.552 61.5355C395.041 61.9687 394.654 62.5582 394.391 63.304C394.135 64.0497 394.008 64.8984 394.008 65.8501C394.008 66.8018 394.135 67.6506 394.391 68.3963C394.654 69.142 395.041 69.7315 395.552 70.1648C396.071 70.5909 396.71 70.804 397.47 70.804ZM408.454 74V57.6364H412.854V60.4915H413.024C413.322 59.4759 413.823 58.7088 414.526 58.1903C415.229 57.6648 416.039 57.402 416.955 57.402C417.182 57.402 417.427 57.4162 417.69 57.4446C417.953 57.473 418.184 57.5121 418.383 57.5618V61.5888C418.17 61.5249 417.875 61.468 417.498 61.4183C417.122 61.3686 416.778 61.3438 416.465 61.3438C415.797 61.3438 415.201 61.4893 414.675 61.7805C414.157 62.0646 413.745 62.4624 413.439 62.9737C413.141 63.4851 412.992 64.0746 412.992 64.7422V74H408.454ZM425.997 74.2663C424.754 74.2663 423.629 73.9467 422.62 73.3075C421.619 72.6612 420.823 71.7131 420.234 70.4631C419.651 69.206 419.36 67.6648 419.36 65.8395C419.36 63.9645 419.662 62.4055 420.266 61.1626C420.869 59.9126 421.672 58.9787 422.673 58.3608C423.682 57.7358 424.786 57.4233 425.987 57.4233C426.903 57.4233 427.666 57.5795 428.277 57.892C428.895 58.1974 429.392 58.581 429.768 59.0426C430.152 59.4972 430.443 59.9446 430.642 60.3849H430.781V52.1818H435.308V74H430.834V71.3793H430.642C430.429 71.8338 430.127 72.2848 429.737 72.7322C429.353 73.1726 428.852 73.5384 428.234 73.8295C427.624 74.1207 426.878 74.2663 425.997 74.2663ZM427.435 70.6548C428.167 70.6548 428.785 70.456 429.289 70.0582C429.8 69.6534 430.191 69.0888 430.461 68.3643C430.738 67.6399 430.876 66.7912 430.876 65.8182C430.876 64.8452 430.741 64 430.472 63.2827C430.202 62.5653 429.811 62.0114 429.3 61.6207C428.788 61.2301 428.167 61.0348 427.435 61.0348C426.69 61.0348 426.061 61.2372 425.55 61.642C425.038 62.0469 424.651 62.608 424.388 63.3253C424.126 64.0426 423.994 64.8736 423.994 65.8182C423.994 66.7699 424.126 67.6115 424.388 68.343C424.658 69.0675 425.045 69.6357 425.55 70.0476C426.061 70.4524 426.69 70.6548 427.435 70.6548Z" fill="black"/>
<path d="M39.4993 121.727H41.8111V131.772C41.8111 132.841 41.56 133.788 41.0579 134.614C40.5558 135.434 39.8498 136.08 38.94 136.553C38.0302 137.02 36.9638 137.254 35.7408 137.254C34.5227 137.254 33.4588 137.02 32.549 136.553C31.6392 136.08 30.9332 135.434 30.4311 134.614C29.929 133.788 29.6779 132.841 29.6779 131.772V121.727H31.9822V131.586C31.9822 132.277 32.1339 132.891 32.4371 133.428C32.7454 133.965 33.1804 134.387 33.7422 134.696C34.304 134.999 34.9702 135.151 35.7408 135.151C36.5163 135.151 37.185 134.999 37.7468 134.696C38.3136 134.387 38.7461 133.965 39.0444 133.428C39.3477 132.891 39.4993 132.277 39.4993 131.586V121.727ZM53.5658 128.342L51.5448 128.7C51.4603 128.441 51.3261 128.195 51.1421 127.962C50.9632 127.728 50.7195 127.537 50.4113 127.387C50.1031 127.238 49.7178 127.164 49.2554 127.164C48.624 127.164 48.097 127.305 47.6744 127.589C47.2519 127.867 47.0406 128.228 47.0406 128.67C47.0406 129.053 47.1823 129.361 47.4656 129.595C47.749 129.828 48.2064 130.02 48.8378 130.169L50.6574 130.587C51.7114 130.83 52.4969 131.206 53.0139 131.713C53.531 132.22 53.7895 132.879 53.7895 133.689C53.7895 134.375 53.5906 134.987 53.1929 135.523C52.8002 136.055 52.2508 136.473 51.5448 136.776C50.8438 137.08 50.031 137.231 49.1063 137.231C47.8236 137.231 46.7771 136.958 45.9667 136.411C45.1563 135.859 44.6592 135.076 44.4752 134.062L46.6304 133.734C46.7646 134.295 47.0406 134.721 47.4582 135.009C47.8758 135.292 48.4202 135.434 49.0914 135.434C49.8222 135.434 50.4063 135.282 50.8438 134.979C51.2813 134.671 51.5001 134.295 51.5001 133.853C51.5001 133.495 51.3659 133.194 51.0974 132.951C50.8339 132.707 50.4287 132.523 49.8818 132.399L47.9429 131.974C46.874 131.73 46.0835 131.342 45.5715 130.81C45.0644 130.278 44.8108 129.605 44.8108 128.789C44.8108 128.113 44.9997 127.522 45.3776 127.015C45.7554 126.507 46.2774 126.112 46.9436 125.829C47.6098 125.54 48.373 125.396 49.233 125.396C50.471 125.396 51.4454 125.665 52.1563 126.202C52.8673 126.734 53.3371 127.447 53.5658 128.342ZM61.1779 137.231C60.0494 137.231 59.0774 136.99 58.2621 136.508C57.4517 136.021 56.8253 135.337 56.3828 134.457C55.9453 133.572 55.7266 132.536 55.7266 131.347C55.7266 130.174 55.9453 129.14 56.3828 128.245C56.8253 127.35 57.4418 126.652 58.2322 126.15C59.0277 125.647 59.9574 125.396 61.0213 125.396C61.6676 125.396 62.294 125.503 62.9006 125.717C63.5071 125.931 64.0515 126.266 64.5337 126.724C65.016 127.181 65.3963 127.775 65.6747 128.506C65.9531 129.232 66.0923 130.114 66.0923 131.153V131.944H56.9869V130.273H63.9073C63.9073 129.687 63.788 129.167 63.5494 128.715C63.3107 128.257 62.9751 127.897 62.5426 127.634C62.1151 127.37 61.6129 127.238 61.0362 127.238C60.4098 127.238 59.8629 127.392 59.3956 127.701C58.9332 128.004 58.5753 128.402 58.3217 128.894C58.0732 129.381 57.9489 129.911 57.9489 130.482V131.787C57.9489 132.553 58.0831 133.204 58.3516 133.741C58.625 134.278 59.0053 134.688 59.4925 134.972C59.9798 135.25 60.549 135.389 61.2003 135.389C61.6229 135.389 62.0082 135.33 62.3562 135.21C62.7042 135.086 63.005 134.902 63.2585 134.658C63.5121 134.415 63.706 134.114 63.8402 133.756L65.9506 134.136C65.7816 134.758 65.4783 135.302 65.0408 135.77C64.6083 136.232 64.0639 136.592 63.4077 136.851C62.7564 137.104 62.0131 137.231 61.1779 137.231ZM68.5663 137V125.545H70.7215V127.365H70.8408C71.0496 126.749 71.4175 126.264 71.9445 125.911C72.4765 125.553 73.078 125.374 73.7492 125.374C73.8884 125.374 74.0525 125.379 74.2414 125.389C74.4353 125.399 74.5869 125.411 74.6963 125.426V127.559C74.6068 127.534 74.4477 127.507 74.219 127.477C73.9903 127.442 73.7616 127.425 73.5329 127.425C73.0059 127.425 72.5361 127.537 72.1235 127.76C71.7158 127.979 71.3927 128.285 71.154 128.678C70.9154 129.065 70.7961 129.508 70.7961 130.005V137H68.5663ZM78.8556 130.199V137H76.6259V125.545H78.7662V127.41H78.9078C79.1713 126.803 79.584 126.316 80.1458 125.948C80.7125 125.58 81.426 125.396 82.286 125.396C83.0666 125.396 83.7502 125.56 84.3368 125.888C84.9235 126.212 85.3784 126.694 85.7015 127.335C86.0247 127.977 86.1863 128.77 86.1863 129.714V137H83.9565V129.983C83.9565 129.152 83.7402 128.504 83.3077 128.036C82.8752 127.564 82.2811 127.328 81.5254 127.328C81.0083 127.328 80.5485 127.44 80.1458 127.663C79.748 127.887 79.4324 128.215 79.1987 128.648C78.97 129.075 78.8556 129.592 78.8556 130.199ZM92.5101 137.254C91.7843 137.254 91.128 137.119 90.5414 136.851C89.9547 136.577 89.4899 136.182 89.1468 135.665C88.8088 135.148 88.6397 134.514 88.6397 133.763C88.6397 133.117 88.764 132.585 89.0126 132.168C89.2612 131.75 89.5968 131.419 90.0194 131.176C90.4419 130.932 90.9142 130.748 91.4363 130.624C91.9583 130.5 92.4902 130.405 93.0321 130.341C93.7182 130.261 94.275 130.196 94.7026 130.147C95.1301 130.092 95.4409 130.005 95.6348 129.886C95.8287 129.766 95.9256 129.572 95.9256 129.304V129.252C95.9256 128.6 95.7417 128.096 95.3738 127.738C95.0108 127.38 94.4689 127.201 93.748 127.201C92.9973 127.201 92.4057 127.368 91.9732 127.701C91.5456 128.029 91.2498 128.394 91.0858 128.797L88.9902 128.32C89.2388 127.624 89.6017 127.062 90.079 126.634C90.5613 126.202 91.1156 125.888 91.742 125.695C92.3684 125.496 93.0272 125.396 93.7182 125.396C94.1756 125.396 94.6603 125.451 95.1724 125.56C95.6895 125.665 96.1717 125.859 96.6191 126.142C97.0716 126.425 97.4419 126.831 97.7303 127.358C98.0186 127.88 98.1628 128.558 98.1628 129.393V137H95.9853V135.434H95.8958C95.7516 135.722 95.5353 136.006 95.247 136.284C94.9586 136.562 94.5882 136.794 94.1358 136.978C93.6834 137.162 93.1415 137.254 92.5101 137.254ZM92.9949 135.464C93.6113 135.464 94.1383 135.342 94.5758 135.098C95.0183 134.855 95.3539 134.537 95.5826 134.144C95.8162 133.746 95.9331 133.321 95.9331 132.869V131.392C95.8535 131.472 95.6994 131.546 95.4707 131.616C95.247 131.68 94.9909 131.738 94.7026 131.787C94.4142 131.832 94.1333 131.874 93.8599 131.914C93.5865 131.949 93.3578 131.979 93.1738 132.004C92.7413 132.058 92.3461 132.15 91.9881 132.279C91.6351 132.409 91.3517 132.595 91.138 132.839C90.9292 133.077 90.8248 133.396 90.8248 133.793C90.8248 134.345 91.0286 134.763 91.4363 135.046C91.8439 135.325 92.3635 135.464 92.9949 135.464ZM101.133 137V125.545H103.273V127.41H103.415C103.653 126.778 104.044 126.286 104.585 125.933C105.127 125.575 105.776 125.396 106.532 125.396C107.297 125.396 107.939 125.575 108.456 125.933C108.978 126.291 109.363 126.783 109.612 127.41H109.731C110.005 126.798 110.44 126.311 111.036 125.948C111.633 125.58 112.344 125.396 113.169 125.396C114.208 125.396 115.056 125.722 115.712 126.373C116.373 127.025 116.704 128.006 116.704 129.319V137H114.474V129.528C114.474 128.752 114.263 128.19 113.84 127.842C113.418 127.494 112.913 127.32 112.326 127.32C111.6 127.32 111.036 127.544 110.633 127.991C110.231 128.434 110.029 129.003 110.029 129.699V137H107.807V129.386C107.807 128.765 107.613 128.265 107.225 127.887C106.838 127.509 106.333 127.32 105.712 127.32C105.289 127.32 104.899 127.432 104.541 127.656C104.188 127.875 103.902 128.18 103.683 128.573C103.469 128.966 103.362 129.421 103.362 129.938V137H101.133ZM124.629 137.231C123.501 137.231 122.529 136.99 121.713 136.508C120.903 136.021 120.276 135.337 119.834 134.457C119.396 133.572 119.178 132.536 119.178 131.347C119.178 130.174 119.396 129.14 119.834 128.245C120.276 127.35 120.893 126.652 121.683 126.15C122.479 125.647 123.409 125.396 124.472 125.396C125.119 125.396 125.745 125.503 126.352 125.717C126.958 125.931 127.503 126.266 127.985 126.724C128.467 127.181 128.847 127.775 129.126 128.506C129.404 129.232 129.544 130.114 129.544 131.153V131.944H120.438V130.273H127.358C127.358 129.687 127.239 129.167 127.001 128.715C126.762 128.257 126.426 127.897 125.994 127.634C125.566 127.37 125.064 127.238 124.487 127.238C123.861 127.238 123.314 127.392 122.847 127.701C122.384 128.004 122.026 128.402 121.773 128.894C121.524 129.381 121.4 129.911 121.4 130.482V131.787C121.4 132.553 121.534 133.204 121.803 133.741C122.076 134.278 122.456 134.688 122.944 134.972C123.431 135.25 124 135.389 124.651 135.389C125.074 135.389 125.459 135.33 125.807 135.21C126.155 135.086 126.456 134.902 126.71 134.658C126.963 134.415 127.157 134.114 127.291 133.756L129.402 134.136C129.233 134.758 128.93 135.302 128.492 135.77C128.059 136.232 127.515 136.592 126.859 136.851C126.208 137.104 125.464 137.231 124.629 137.231ZM133.487 137.142C133.079 137.142 132.728 136.998 132.435 136.709C132.142 136.416 131.995 136.063 131.995 135.65C131.995 135.243 132.142 134.895 132.435 134.606C132.728 134.313 133.079 134.166 133.487 134.166C133.894 134.166 134.245 134.313 134.538 134.606C134.831 134.895 134.978 135.243 134.978 135.65C134.978 135.924 134.908 136.175 134.769 136.403C134.635 136.627 134.456 136.806 134.232 136.94C134.009 137.075 133.76 137.142 133.487 137.142ZM133.487 128.804C133.079 128.804 132.728 128.658 132.435 128.364C132.142 128.071 131.995 127.721 131.995 127.313C131.995 126.905 132.142 126.557 132.435 126.269C132.728 125.975 133.079 125.829 133.487 125.829C133.894 125.829 134.245 125.975 134.538 126.269C134.831 126.557 134.978 126.905 134.978 127.313C134.978 127.586 134.908 127.837 134.769 128.066C134.635 128.29 134.456 128.469 134.232 128.603C134.009 128.737 133.76 128.804 133.487 128.804Z" fill="black"/>
<path d="M29.6779 230V214.727H35.1218C36.31 214.727 37.2944 214.944 38.0749 215.376C38.8555 215.809 39.4396 216.4 39.8274 217.151C40.2152 217.897 40.4091 218.737 40.4091 219.672C40.4091 220.611 40.2127 221.456 39.82 222.207C39.4322 222.953 38.8455 223.544 38.06 223.982C37.2795 224.414 36.2976 224.631 35.1143 224.631H31.3707V222.677H34.9055C35.6563 222.677 36.2653 222.548 36.7326 222.289C37.1999 222.026 37.543 221.668 37.7617 221.215C37.9805 220.763 38.0898 220.248 38.0898 219.672C38.0898 219.095 37.9805 218.583 37.7617 218.135C37.543 217.688 37.1974 217.337 36.7251 217.084C36.2578 216.83 35.6413 216.703 34.8757 216.703H31.9822V230H29.6779ZM46.1625 230.254C45.4366 230.254 44.7804 230.119 44.1937 229.851C43.6071 229.577 43.1422 229.182 42.7992 228.665C42.4611 228.148 42.2921 227.514 42.2921 226.763C42.2921 226.117 42.4164 225.585 42.665 225.168C42.9135 224.75 43.2491 224.419 43.6717 224.176C44.0943 223.932 44.5666 223.748 45.0886 223.624C45.6106 223.5 46.1426 223.405 46.6845 223.341C47.3706 223.261 47.9274 223.196 48.3549 223.147C48.7825 223.092 49.0932 223.005 49.2871 222.886C49.481 222.766 49.5779 222.572 49.5779 222.304V222.252C49.5779 221.6 49.394 221.096 49.0261 220.738C48.6632 220.38 48.1213 220.201 47.4004 220.201C46.6497 220.201 46.0581 220.368 45.6255 220.701C45.198 221.029 44.9022 221.394 44.7381 221.797L42.6426 221.32C42.8912 220.624 43.2541 220.062 43.7314 219.634C44.2136 219.202 44.7679 218.888 45.3944 218.695C46.0208 218.496 46.6795 218.396 47.3706 218.396C47.8279 218.396 48.3127 218.451 48.8248 218.56C49.3418 218.665 49.824 218.859 50.2715 219.142C50.7239 219.425 51.0943 219.831 51.3826 220.358C51.671 220.88 51.8152 221.558 51.8152 222.393V230H49.6376V228.434H49.5481C49.4039 228.722 49.1877 229.006 48.8993 229.284C48.611 229.562 48.2406 229.794 47.7882 229.978C47.3358 230.162 46.7939 230.254 46.1625 230.254ZM46.6472 228.464C47.2637 228.464 47.7907 228.342 48.2282 228.098C48.6706 227.855 49.0062 227.537 49.2349 227.144C49.4686 226.746 49.5854 226.321 49.5854 225.869V224.392C49.5059 224.472 49.3517 224.546 49.123 224.616C48.8993 224.68 48.6433 224.738 48.3549 224.787C48.0666 224.832 47.7857 224.874 47.5123 224.914C47.2388 224.949 47.0101 224.979 46.8262 225.004C46.3936 225.058 45.9984 225.15 45.6404 225.279C45.2875 225.409 45.0041 225.595 44.7903 225.839C44.5815 226.077 44.4771 226.396 44.4771 226.793C44.4771 227.345 44.6809 227.763 45.0886 228.046C45.4963 228.325 46.0158 228.464 46.6472 228.464ZM63.3685 221.342L61.3476 221.7C61.2631 221.441 61.1288 221.195 60.9449 220.962C60.7659 220.728 60.5223 220.537 60.214 220.387C59.9058 220.238 59.5205 220.164 59.0582 220.164C58.4268 220.164 57.8998 220.305 57.4772 220.589C57.0546 220.867 56.8433 221.228 56.8433 221.67C56.8433 222.053 56.985 222.361 57.2684 222.595C57.5518 222.828 58.0091 223.02 58.6405 223.169L60.4601 223.587C61.5141 223.83 62.2996 224.206 62.8167 224.713C63.3337 225.22 63.5922 225.879 63.5922 226.689C63.5922 227.375 63.3934 227.987 62.9957 228.523C62.6029 229.055 62.0535 229.473 61.3476 229.776C60.6466 230.08 59.8337 230.231 58.909 230.231C57.6263 230.231 56.5798 229.958 55.7694 229.411C54.9591 228.859 54.4619 228.076 54.278 227.062L56.4331 226.734C56.5674 227.295 56.8433 227.721 57.2609 228.009C57.6785 228.292 58.2229 228.434 58.8941 228.434C59.6249 228.434 60.2091 228.282 60.6466 227.979C61.0841 227.671 61.3028 227.295 61.3028 226.853C61.3028 226.495 61.1686 226.194 60.9001 225.951C60.6366 225.707 60.2314 225.523 59.6846 225.399L57.7457 224.974C56.6768 224.73 55.8863 224.342 55.3742 223.81C54.8671 223.278 54.6135 222.605 54.6135 221.789C54.6135 221.113 54.8025 220.522 55.1803 220.015C55.5581 219.507 56.0802 219.112 56.7464 218.829C57.4126 218.54 58.1757 218.396 59.0358 218.396C60.2737 218.396 61.2481 218.665 61.9591 219.202C62.67 219.734 63.1398 220.447 63.3685 221.342ZM74.6273 221.342L72.6064 221.7C72.5218 221.441 72.3876 221.195 72.2037 220.962C72.0247 220.728 71.7811 220.537 71.4728 220.387C71.1646 220.238 70.7793 220.164 70.3169 220.164C69.6855 220.164 69.1586 220.305 68.736 220.589C68.3134 220.867 68.1021 221.228 68.1021 221.67C68.1021 222.053 68.2438 222.361 68.5272 222.595C68.8105 222.828 69.2679 223.02 69.8993 223.169L71.7189 223.587C72.7729 223.83 73.5584 224.206 74.0755 224.713C74.5925 225.22 74.851 225.879 74.851 226.689C74.851 227.375 74.6522 227.987 74.2544 228.523C73.8617 229.055 73.3123 229.473 72.6064 229.776C71.9054 230.08 71.0925 230.231 70.1678 230.231C68.8851 230.231 67.8386 229.958 67.0282 229.411C66.2179 228.859 65.7207 228.076 65.5368 227.062L67.6919 226.734C67.8262 227.295 68.1021 227.721 68.5197 228.009C68.9373 228.292 69.4817 228.434 70.1529 228.434C70.8837 228.434 71.4679 228.282 71.9054 227.979C72.3429 227.671 72.5616 227.295 72.5616 226.853C72.5616 226.495 72.4274 226.194 72.1589 225.951C71.8954 225.707 71.4902 225.523 70.9434 225.399L69.0044 224.974C67.9355 224.73 67.1451 224.342 66.633 223.81C66.1259 223.278 65.8723 222.605 65.8723 221.789C65.8723 221.113 66.0613 220.522 66.4391 220.015C66.8169 219.507 67.339 219.112 68.0051 218.829C68.6713 218.54 69.4345 218.396 70.2946 218.396C71.5325 218.396 72.5069 218.665 73.2179 219.202C73.9288 219.734 74.3986 220.447 74.6273 221.342ZM79.786 230L76.4152 218.545H78.7195L80.9642 226.957H81.0761L83.3282 218.545H85.6325L87.8698 226.92H87.9816L90.2114 218.545H92.5157L89.1524 230H86.8779L84.5512 221.73H84.3797L82.053 230H79.786ZM99.108 230.231C98.0342 230.231 97.097 229.985 96.2966 229.493C95.4962 229.001 94.8747 228.312 94.4323 227.427C93.9898 226.542 93.7686 225.508 93.7686 224.325C93.7686 223.137 93.9898 222.098 94.4323 221.208C94.8747 220.318 95.4962 219.627 96.2966 219.135C97.097 218.642 98.0342 218.396 99.108 218.396C100.182 218.396 101.119 218.642 101.919 219.135C102.72 219.627 103.341 220.318 103.784 221.208C104.226 222.098 104.448 223.137 104.448 224.325C104.448 225.508 104.226 226.542 103.784 227.427C103.341 228.312 102.72 229.001 101.919 229.493C101.119 229.985 100.182 230.231 99.108 230.231ZM99.1155 228.359C99.8115 228.359 100.388 228.175 100.846 227.808C101.303 227.44 101.641 226.95 101.86 226.338C102.084 225.727 102.195 225.053 102.195 224.317C102.195 223.587 102.084 222.915 101.86 222.304C101.641 221.687 101.303 221.193 100.846 220.82C100.388 220.447 99.8115 220.261 99.1155 220.261C98.4145 220.261 97.8328 220.447 97.3705 220.82C96.9131 221.193 96.5725 221.687 96.3488 222.304C96.1301 222.915 96.0207 223.587 96.0207 224.317C96.0207 225.053 96.1301 225.727 96.3488 226.338C96.5725 226.95 96.9131 227.44 97.3705 227.808C97.8328 228.175 98.4145 228.359 99.1155 228.359ZM106.936 230V218.545H109.092V220.365H109.211C109.42 219.749 109.788 219.264 110.315 218.911C110.847 218.553 111.448 218.374 112.119 218.374C112.259 218.374 112.423 218.379 112.612 218.389C112.805 218.399 112.957 218.411 113.066 218.426V220.559C112.977 220.534 112.818 220.507 112.589 220.477C112.36 220.442 112.132 220.425 111.903 220.425C111.376 220.425 110.906 220.537 110.494 220.76C110.086 220.979 109.763 221.285 109.524 221.678C109.286 222.065 109.166 222.508 109.166 223.005V230H106.936ZM118.874 230.224C117.949 230.224 117.124 229.988 116.398 229.515C115.677 229.038 115.11 228.359 114.698 227.479C114.29 226.594 114.086 225.533 114.086 224.295C114.086 223.057 114.293 221.998 114.705 221.118C115.123 220.238 115.695 219.565 116.42 219.097C117.146 218.63 117.969 218.396 118.889 218.396C119.6 218.396 120.171 218.516 120.604 218.754C121.041 218.988 121.38 219.261 121.618 219.575C121.862 219.888 122.051 220.164 122.185 220.402H122.319V214.727H124.549V230H122.371V228.218H122.185C122.051 228.461 121.857 228.74 121.603 229.053C121.355 229.366 121.012 229.64 120.574 229.873C120.137 230.107 119.57 230.224 118.874 230.224ZM119.366 228.322C120.007 228.322 120.549 228.153 120.992 227.815C121.439 227.472 121.777 226.997 122.006 226.391C122.24 225.784 122.356 225.078 122.356 224.273C122.356 223.477 122.242 222.781 122.013 222.185C121.785 221.588 121.449 221.123 121.007 220.79C120.564 220.457 120.017 220.29 119.366 220.29C118.695 220.29 118.136 220.464 117.688 220.812C117.241 221.161 116.903 221.635 116.674 222.237C116.45 222.838 116.338 223.517 116.338 224.273C116.338 225.038 116.453 225.727 116.681 226.338C116.91 226.95 117.248 227.435 117.696 227.793C118.148 228.146 118.705 228.322 119.366 228.322ZM129.2 230.142C128.793 230.142 128.442 229.998 128.149 229.709C127.856 229.416 127.709 229.063 127.709 228.65C127.709 228.243 127.856 227.895 128.149 227.606C128.442 227.313 128.793 227.166 129.2 227.166C129.608 227.166 129.959 227.313 130.252 227.606C130.545 227.895 130.692 228.243 130.692 228.65C130.692 228.924 130.622 229.175 130.483 229.403C130.349 229.627 130.17 229.806 129.946 229.94C129.722 230.075 129.474 230.142 129.2 230.142ZM129.2 221.804C128.793 221.804 128.442 221.658 128.149 221.364C127.856 221.071 127.709 220.721 127.709 220.313C127.709 219.905 127.856 219.557 128.149 219.269C128.442 218.975 128.793 218.829 129.2 218.829C129.608 218.829 129.959 218.975 130.252 219.269C130.545 219.557 130.692 219.905 130.692 220.313C130.692 220.586 130.622 220.837 130.483 221.066C130.349 221.29 130.17 221.469 129.946 221.603C129.722 221.737 129.474 221.804 129.2 221.804Z" fill="black"/>
<path d="M577.777 74V52.1818H592.479V55.9851H582.39V61.1839H591.722V64.9872H582.39V70.1967H592.521V74H577.777ZM599.854 57.6364L602.858 63.3572L605.937 57.6364H610.592L605.852 65.8182L610.72 74H606.086L602.858 68.343L599.683 74H594.996L599.854 65.8182L595.166 57.6364H599.854ZM621.991 57.6364V61.0455H612.137V57.6364H621.991ZM614.374 53.7159H618.913V68.9716C618.913 69.3906 618.977 69.7173 619.104 69.9517C619.232 70.179 619.41 70.3388 619.637 70.4311C619.871 70.5234 620.141 70.5696 620.447 70.5696C620.66 70.5696 620.873 70.5518 621.086 70.5163C621.299 70.4737 621.462 70.4418 621.576 70.4205L622.29 73.7976C622.063 73.8686 621.743 73.9503 621.331 74.0426C620.919 74.142 620.418 74.2024 619.829 74.2237C618.735 74.2663 617.776 74.1207 616.952 73.7869C616.136 73.4531 615.5 72.9347 615.045 72.2315C614.591 71.5284 614.367 70.6406 614.374 69.5682V53.7159ZM632.229 74.3196C630.546 74.3196 629.097 73.9787 627.883 73.2969C626.675 72.608 625.745 71.6349 625.092 70.3778C624.438 69.1136 624.112 67.6186 624.112 65.8928C624.112 64.2095 624.438 62.7322 625.092 61.4609C625.745 60.1896 626.665 59.1989 627.851 58.4886C629.044 57.7784 630.443 57.4233 632.048 57.4233C633.128 57.4233 634.133 57.5973 635.063 57.9453C636.001 58.2862 636.817 58.8011 637.513 59.4901C638.217 60.179 638.763 61.0455 639.154 62.0895C639.545 63.1264 639.74 64.3409 639.74 65.733V66.9794H625.923V64.1669H635.468C635.468 63.5135 635.326 62.9347 635.042 62.4304C634.758 61.9261 634.364 61.532 633.859 61.2479C633.362 60.9567 632.783 60.8111 632.123 60.8111C631.434 60.8111 630.823 60.9709 630.29 61.2905C629.765 61.603 629.353 62.0256 629.055 62.5582C628.756 63.0838 628.604 63.6697 628.597 64.3161V66.9901C628.597 67.7997 628.746 68.4993 629.044 69.0888C629.349 69.6783 629.779 70.1328 630.333 70.4524C630.887 70.772 631.544 70.9318 632.304 70.9318C632.808 70.9318 633.27 70.8608 633.689 70.7188C634.108 70.5767 634.467 70.3636 634.765 70.0795C635.063 69.7955 635.29 69.4474 635.447 69.0355L639.644 69.3125C639.431 70.321 638.994 71.2017 638.334 71.9545C637.68 72.7003 636.835 73.2827 635.798 73.7017C634.768 74.1136 633.579 74.3196 632.229 74.3196ZM642.702 74V57.6364H647.102V60.4915H647.272C647.57 59.4759 648.071 58.7088 648.774 58.1903C649.477 57.6648 650.287 57.402 651.203 57.402C651.43 57.402 651.675 57.4162 651.938 57.4446C652.201 57.473 652.432 57.5121 652.631 57.5618V61.5888C652.418 61.5249 652.123 61.468 651.746 61.4183C651.37 61.3686 651.026 61.3438 650.713 61.3438C650.045 61.3438 649.449 61.4893 648.923 61.7805C648.405 62.0646 647.993 62.4624 647.688 62.9737C647.389 63.4851 647.24 64.0746 647.24 64.7422V74H642.702ZM659.515 64.5398V74H654.977V57.6364H659.302V60.5234H659.494C659.856 59.5717 660.464 58.8189 661.316 58.2649C662.168 57.7038 663.202 57.4233 664.416 57.4233C665.552 57.4233 666.543 57.6719 667.388 58.169C668.233 58.6662 668.89 59.3764 669.359 60.2997C669.828 61.2159 670.062 62.3097 670.062 63.581V74H665.524V64.3906C665.531 63.3892 665.275 62.608 664.757 62.0469C664.238 61.4787 663.525 61.1946 662.616 61.1946C662.005 61.1946 661.465 61.326 660.996 61.5888C660.535 61.8516 660.172 62.2351 659.91 62.7393C659.654 63.2365 659.523 63.8366 659.515 64.5398ZM678.305 74.3089C677.261 74.3089 676.331 74.1278 675.514 73.7656C674.697 73.3963 674.051 72.853 673.575 72.1357C673.107 71.4112 672.872 70.5092 672.872 69.4297C672.872 68.5206 673.039 67.7571 673.373 67.1392C673.707 66.5213 674.161 66.0241 674.737 65.6477C675.312 65.2713 675.965 64.9872 676.697 64.7955C677.435 64.6037 678.21 64.4688 679.019 64.3906C679.971 64.2912 680.738 64.1989 681.32 64.1136C681.903 64.0213 682.325 63.8864 682.588 63.7088C682.851 63.5312 682.982 63.2685 682.982 62.9205V62.8565C682.982 62.1818 682.769 61.6598 682.343 61.2905C681.924 60.9212 681.327 60.7365 680.553 60.7365C679.737 60.7365 679.087 60.9176 678.604 61.2798C678.121 61.6349 677.801 62.0824 677.645 62.6222L673.447 62.2812C673.661 61.2869 674.08 60.4276 674.705 59.7031C675.33 58.9716 676.136 58.4105 677.123 58.0199C678.117 57.6222 679.268 57.4233 680.575 57.4233C681.484 57.4233 682.354 57.5298 683.185 57.7429C684.023 57.956 684.765 58.2862 685.411 58.7337C686.065 59.1811 686.58 59.7564 686.956 60.4595C687.332 61.1555 687.521 61.9901 687.521 62.9631V74H683.217V71.7308H683.089C682.826 72.2422 682.474 72.6932 682.034 73.0838C681.594 73.4673 681.065 73.7692 680.447 73.9893C679.829 74.2024 679.115 74.3089 678.305 74.3089ZM679.605 71.1768C680.273 71.1768 680.862 71.0455 681.374 70.7827C681.885 70.5128 682.286 70.1506 682.577 69.696C682.869 69.2415 683.014 68.7266 683.014 68.1513V66.4148C682.872 66.5071 682.677 66.5923 682.428 66.6705C682.187 66.7415 681.913 66.8089 681.608 66.8729C681.303 66.9297 680.997 66.983 680.692 67.0327C680.386 67.0753 680.109 67.1143 679.861 67.1499C679.328 67.228 678.863 67.3523 678.465 67.5227C678.067 67.6932 677.759 67.924 677.538 68.2152C677.318 68.4993 677.208 68.8544 677.208 69.2805C677.208 69.8984 677.432 70.3707 677.879 70.6974C678.334 71.017 678.909 71.1768 679.605 71.1768ZM695.58 52.1818V74H691.042V52.1818H695.58ZM710.857 52.1818V74H706.244V52.1818H710.857ZM720.597 74.2663C719.354 74.2663 718.228 73.9467 717.22 73.3075C716.218 72.6612 715.423 71.7131 714.833 70.4631C714.251 69.206 713.96 67.6648 713.96 65.8395C713.96 63.9645 714.262 62.4055 714.865 61.1626C715.469 59.9126 716.271 58.9787 717.273 58.3608C718.281 57.7358 719.386 57.4233 720.586 57.4233C721.502 57.4233 722.266 57.5795 722.877 57.892C723.494 58.1974 723.992 58.581 724.368 59.0426C724.752 59.4972 725.043 59.9446 725.242 60.3849H725.38V52.1818H729.908V74H725.433V71.3793H725.242C725.029 71.8338 724.727 72.2848 724.336 72.7322C723.953 73.1726 723.452 73.5384 722.834 73.8295C722.223 74.1207 721.477 74.2663 720.597 74.2663ZM722.035 70.6548C722.767 70.6548 723.384 70.456 723.889 70.0582C724.4 69.6534 724.791 69.0888 725.061 68.3643C725.338 67.6399 725.476 66.7912 725.476 65.8182C725.476 64.8452 725.341 64 725.071 63.2827C724.801 62.5653 724.411 62.0114 723.899 61.6207C723.388 61.2301 722.767 61.0348 722.035 61.0348C721.289 61.0348 720.661 61.2372 720.149 61.642C719.638 62.0469 719.251 62.608 718.988 63.3253C718.725 64.0426 718.594 64.8736 718.594 65.8182C718.594 66.7699 718.725 67.6115 718.988 68.343C719.258 69.0675 719.645 69.6357 720.149 70.0476C720.661 70.4524 721.289 70.6548 722.035 70.6548ZM741.097 74.3196C739.413 74.3196 737.964 73.9787 736.75 73.2969C735.543 72.608 734.612 71.6349 733.959 70.3778C733.305 69.1136 732.979 67.6186 732.979 65.8928C732.979 64.2095 733.305 62.7322 733.959 61.4609C734.612 60.1896 735.532 59.1989 736.718 58.4886C737.911 57.7784 739.31 57.4233 740.915 57.4233C741.995 57.4233 743 57.5973 743.93 57.9453C744.868 58.2862 745.685 58.8011 746.381 59.4901C747.084 60.179 747.631 61.0455 748.021 62.0895C748.412 63.1264 748.607 64.3409 748.607 65.733V66.9794H734.79V64.1669H744.335C744.335 63.5135 744.193 62.9347 743.909 62.4304C743.625 61.9261 743.231 61.532 742.727 61.2479C742.229 60.9567 741.651 60.8111 740.99 60.8111C740.301 60.8111 739.69 60.9709 739.158 61.2905C738.632 61.603 738.22 62.0256 737.922 62.5582C737.624 63.0838 737.471 63.6697 737.464 64.3161V66.9901C737.464 67.7997 737.613 68.4993 737.911 69.0888C738.217 69.6783 738.646 70.1328 739.2 70.4524C739.754 70.772 740.411 70.9318 741.171 70.9318C741.675 70.9318 742.137 70.8608 742.556 70.7188C742.975 70.5767 743.334 70.3636 743.632 70.0795C743.93 69.7955 744.158 69.4474 744.314 69.0355L748.511 69.3125C748.298 70.321 747.862 71.2017 747.201 71.9545C746.548 72.7003 745.702 73.2827 744.665 73.7017C743.636 74.1136 742.446 74.3196 741.097 74.3196ZM756.107 64.5398V74H751.569V57.6364H755.894V60.5234H756.086C756.448 59.5717 757.055 58.8189 757.908 58.2649C758.76 57.7038 759.793 57.4233 761.008 57.4233C762.144 57.4233 763.135 57.6719 763.98 58.169C764.825 58.6662 765.482 59.3764 765.951 60.2997C766.42 61.2159 766.654 62.3097 766.654 63.581V74H762.116V64.3906C762.123 63.3892 761.867 62.608 761.349 62.0469C760.83 61.4787 760.116 61.1946 759.207 61.1946C758.597 61.1946 758.057 61.326 757.588 61.5888C757.126 61.8516 756.764 62.2351 756.501 62.7393C756.246 63.2365 756.114 63.8366 756.107 64.5398ZM778.935 57.6364V61.0455H769.08V57.6364H778.935ZM771.318 53.7159H775.856V68.9716C775.856 69.3906 775.92 69.7173 776.048 69.9517C776.176 70.179 776.353 70.3388 776.58 70.4311C776.815 70.5234 777.085 70.5696 777.39 70.5696C777.603 70.5696 777.816 70.5518 778.029 70.5163C778.242 70.4737 778.406 70.4418 778.519 70.4205L779.233 73.7976C779.006 73.8686 778.686 73.9503 778.274 74.0426C777.862 74.142 777.362 74.2024 776.772 74.2237C775.678 74.2663 774.72 74.1207 773.896 73.7869C773.079 73.4531 772.443 72.9347 771.989 72.2315C771.534 71.5284 771.311 70.6406 771.318 69.5682V53.7159ZM781.891 74V57.6364H786.43V74H781.891ZM784.171 55.527C783.496 55.527 782.917 55.3033 782.434 54.8558C781.959 54.4013 781.721 53.858 781.721 53.2259C781.721 52.6009 781.959 52.0646 782.434 51.6172C782.917 51.1626 783.496 50.9354 784.171 50.9354C784.846 50.9354 785.421 51.1626 785.897 51.6172C786.38 52.0646 786.621 52.6009 786.621 53.2259C786.621 53.858 786.38 54.4013 785.897 54.8558C785.421 55.3033 784.846 55.527 784.171 55.527ZM798.769 57.6364V61.0455H788.914V57.6364H798.769ZM791.152 53.7159H795.69V68.9716C795.69 69.3906 795.754 69.7173 795.882 69.9517C796.01 70.179 796.187 70.3388 796.414 70.4311C796.649 70.5234 796.919 70.5696 797.224 70.5696C797.437 70.5696 797.65 70.5518 797.863 70.5163C798.076 70.4737 798.24 70.4418 798.353 70.4205L799.067 73.7976C798.84 73.8686 798.52 73.9503 798.108 74.0426C797.696 74.142 797.196 74.2024 796.606 74.2237C795.512 74.2663 794.554 74.1207 793.73 73.7869C792.913 73.4531 792.277 72.9347 791.823 72.2315C791.368 71.5284 791.145 70.6406 791.152 69.5682V53.7159ZM804.527 80.1364C803.952 80.1364 803.412 80.0902 802.908 79.9979C802.411 79.9126 801.999 79.8026 801.672 79.6676L802.695 76.2798C803.227 76.4432 803.707 76.532 804.133 76.5462C804.566 76.5604 804.939 76.4609 805.251 76.2479C805.571 76.0348 805.83 75.6726 806.029 75.1612L806.295 74.4688L800.425 57.6364H805.198L808.586 69.6534H808.756L812.176 57.6364H816.981L810.621 75.7685C810.315 76.6491 809.9 77.4162 809.374 78.0696C808.856 78.7301 808.199 79.2379 807.403 79.593C806.608 79.9553 805.649 80.1364 804.527 80.1364ZM826.332 74V52.1818H834.94C836.595 52.1818 838.004 52.4979 839.169 53.13C840.334 53.755 841.222 54.625 841.833 55.7401C842.45 56.848 842.759 58.1264 842.759 59.5753C842.759 61.0241 842.447 62.3026 841.822 63.4105C841.197 64.5185 840.291 65.3814 839.105 65.9993C837.926 66.6172 836.499 66.9261 834.823 66.9261H829.336V63.2294H834.077C834.965 63.2294 835.696 63.0767 836.271 62.7713C836.854 62.4588 837.287 62.0291 837.571 61.4822C837.862 60.9283 838.008 60.2926 838.008 59.5753C838.008 58.8509 837.862 58.2187 837.571 57.679C837.287 57.1321 836.854 56.7095 836.271 56.4112C835.689 56.1058 834.95 55.9531 834.056 55.9531H830.945V74H826.332ZM845.67 74V57.6364H850.07V60.4915H850.241C850.539 59.4759 851.04 58.7088 851.743 58.1903C852.446 57.6648 853.256 57.402 854.172 57.402C854.399 57.402 854.644 57.4162 854.907 57.4446C855.17 57.473 855.401 57.5121 855.599 57.5618V61.5888C855.386 61.5249 855.092 61.468 854.715 61.4183C854.339 61.3686 853.994 61.3438 853.682 61.3438C853.014 61.3438 852.418 61.4893 851.892 61.7805C851.374 62.0646 850.962 62.4624 850.656 62.9737C850.358 63.4851 850.209 64.0746 850.209 64.7422V74H845.67ZM864.578 74.3196C862.923 74.3196 861.492 73.968 860.284 73.2649C859.084 72.5547 858.157 71.5675 857.504 70.3033C856.85 69.032 856.524 67.5582 856.524 65.8821C856.524 64.1918 856.85 62.7145 857.504 61.4503C858.157 60.179 859.084 59.1918 860.284 58.4886C861.492 57.7784 862.923 57.4233 864.578 57.4233C866.232 57.4233 867.66 57.7784 868.86 58.4886C870.068 59.1918 870.998 60.179 871.651 61.4503C872.305 62.7145 872.632 64.1918 872.632 65.8821C872.632 67.5582 872.305 69.032 871.651 70.3033C870.998 71.5675 870.068 72.5547 868.86 73.2649C867.66 73.968 866.232 74.3196 864.578 74.3196ZM864.599 70.804C865.352 70.804 865.98 70.5909 866.485 70.1648C866.989 69.7315 867.369 69.142 867.624 68.3963C867.887 67.6506 868.019 66.8018 868.019 65.8501C868.019 64.8984 867.887 64.0497 867.624 63.304C867.369 62.5582 866.989 61.9687 866.485 61.5355C865.98 61.1023 865.352 60.8857 864.599 60.8857C863.839 60.8857 863.2 61.1023 862.681 61.5355C862.17 61.9687 861.783 62.5582 861.52 63.304C861.264 64.0497 861.137 64.8984 861.137 65.8501C861.137 66.8018 861.264 67.6506 861.52 68.3963C861.783 69.142 862.17 69.7315 862.681 70.1648C863.2 70.5909 863.839 70.804 864.599 70.804ZM890.311 57.6364L884.59 74H879.476L873.756 57.6364H878.55L881.948 69.3445H882.118L885.506 57.6364H890.311ZM892.633 74V57.6364H897.172V74H892.633ZM894.913 55.527C894.238 55.527 893.66 55.3033 893.177 54.8558C892.701 54.4013 892.463 53.858 892.463 53.2259C892.463 52.6009 892.701 52.0646 893.177 51.6172C893.66 51.1626 894.238 50.9354 894.913 50.9354C895.588 50.9354 896.163 51.1626 896.639 51.6172C897.122 52.0646 897.363 52.6009 897.363 53.2259C897.363 53.858 897.122 54.4013 896.639 54.8558C896.163 55.3033 895.588 55.527 894.913 55.527ZM906.837 74.2663C905.594 74.2663 904.468 73.9467 903.46 73.3075C902.458 72.6612 901.663 71.7131 901.074 70.4631C900.491 69.206 900.2 67.6648 900.2 65.8395C900.2 63.9645 900.502 62.4055 901.105 61.1626C901.709 59.9126 902.512 58.9787 903.513 58.3608C904.522 57.7358 905.626 57.4233 906.826 57.4233C907.743 57.4233 908.506 57.5795 909.117 57.892C909.735 58.1974 910.232 58.581 910.608 59.0426C910.992 59.4972 911.283 59.9446 911.482 60.3849H911.62V52.1818H916.148V74H911.674V71.3793H911.482C911.269 71.8338 910.967 72.2848 910.576 72.7322C910.193 73.1726 909.692 73.5384 909.074 73.8295C908.463 74.1207 907.718 74.2663 906.837 74.2663ZM908.275 70.6548C909.007 70.6548 909.625 70.456 910.129 70.0582C910.64 69.6534 911.031 69.0888 911.301 68.3643C911.578 67.6399 911.716 66.7912 911.716 65.8182C911.716 64.8452 911.581 64 911.311 63.2827C911.042 62.5653 910.651 62.0114 910.14 61.6207C909.628 61.2301 909.007 61.0348 908.275 61.0348C907.529 61.0348 906.901 61.2372 906.39 61.642C905.878 62.0469 905.491 62.608 905.228 63.3253C904.966 64.0426 904.834 64.8736 904.834 65.8182C904.834 66.7699 904.966 67.6115 905.228 68.343C905.498 69.0675 905.885 69.6357 906.39 70.0476C906.901 70.4524 907.529 70.6548 908.275 70.6548ZM927.337 74.3196C925.654 74.3196 924.205 73.9787 922.99 73.2969C921.783 72.608 920.852 71.6349 920.199 70.3778C919.546 69.1136 919.219 67.6186 919.219 65.8928C919.219 64.2095 919.546 62.7322 920.199 61.4609C920.852 60.1896 921.772 59.1989 922.958 58.4886C924.151 57.7784 925.551 57.4233 927.156 57.4233C928.235 57.4233 929.24 57.5973 930.171 57.9453C931.108 58.2862 931.925 58.8011 932.621 59.4901C933.324 60.179 933.871 61.0455 934.262 62.0895C934.652 63.1264 934.847 64.3409 934.847 65.733V66.9794H921.03V64.1669H930.575C930.575 63.5135 930.433 62.9347 930.149 62.4304C929.865 61.9261 929.471 61.532 928.967 61.2479C928.47 60.9567 927.891 60.8111 927.23 60.8111C926.541 60.8111 925.931 60.9709 925.398 61.2905C924.872 61.603 924.46 62.0256 924.162 62.5582C923.864 63.0838 923.711 63.6697 923.704 64.3161V66.9901C923.704 67.7997 923.853 68.4993 924.151 69.0888C924.457 69.6783 924.887 70.1328 925.441 70.4524C925.994 70.772 926.651 70.9318 927.411 70.9318C927.916 70.9318 928.377 70.8608 928.796 70.7188C929.215 70.5767 929.574 70.3636 929.872 70.0795C930.171 69.7955 930.398 69.4474 930.554 69.0355L934.752 69.3125C934.539 70.321 934.102 71.2017 933.441 71.9545C932.788 72.7003 931.943 73.2827 930.906 73.7017C929.876 74.1136 928.686 74.3196 927.337 74.3196ZM937.809 74V57.6364H942.209V60.4915H942.379C942.678 59.4759 943.178 58.7088 943.882 58.1903C944.585 57.6648 945.394 57.402 946.311 57.402C946.538 57.402 946.783 57.4162 947.046 57.4446C947.308 57.473 947.539 57.5121 947.738 57.5618V61.5888C947.525 61.5249 947.23 61.468 946.854 61.4183C946.477 61.3686 946.133 61.3438 945.82 61.3438C945.153 61.3438 944.556 61.4893 944.031 61.7805C943.512 62.0646 943.1 62.4624 942.795 62.9737C942.497 63.4851 942.347 64.0746 942.347 64.7422V74H937.809ZM963.7 62.3026L959.545 62.5582C959.474 62.2031 959.321 61.8835 959.087 61.5994C958.852 61.3082 958.543 61.0774 958.16 60.907C957.783 60.7294 957.332 60.6406 956.807 60.6406C956.104 60.6406 955.511 60.7898 955.028 61.0881C954.545 61.3793 954.303 61.7699 954.303 62.2599C954.303 62.6506 954.46 62.9808 954.772 63.2507C955.085 63.5206 955.621 63.7372 956.381 63.9006L959.342 64.4972C960.933 64.8239 962.119 65.3494 962.901 66.0739C963.682 66.7983 964.072 67.75 964.072 68.929C964.072 70.0014 963.756 70.9425 963.124 71.7521C962.499 72.5618 961.64 73.1939 960.546 73.6484C959.46 74.0959 958.206 74.3196 956.786 74.3196C954.619 74.3196 952.893 73.8686 951.608 72.9666C950.33 72.0575 949.58 70.8217 949.36 69.2592L953.824 69.0249C953.959 69.6854 954.286 70.1896 954.804 70.5376C955.322 70.8786 955.987 71.049 956.796 71.049C957.592 71.049 958.231 70.8963 958.714 70.5909C959.204 70.2784 959.452 69.8771 959.46 69.3871C959.452 68.9751 959.278 68.6378 958.938 68.375C958.597 68.1051 958.071 67.8991 957.361 67.7571L954.527 67.1925C952.929 66.8729 951.739 66.3189 950.958 65.5305C950.184 64.7422 949.797 63.7372 949.797 62.5156C949.797 61.4645 950.081 60.5589 950.649 59.799C951.224 59.0391 952.031 58.4531 953.067 58.0412C954.112 57.6293 955.333 57.4233 956.732 57.4233C958.799 57.4233 960.425 57.8601 961.612 58.7337C962.805 59.6072 963.501 60.7969 963.7 62.3026Z" fill="black"/>
<rect x="29" y="143" width="428" height="44" rx="9" fill="white" stroke="#575757" stroke-width="2"/>
<rect x="29" y="236" width="428" height="44" rx="9" fill="white" stroke="#575757" stroke-width="2"/>
<rect x="28" y="308" width="139" height="50" rx="4" fill="#004084"/>
<path d="M74.9382 340V326.909H76.9134V338.3H82.8452V340H74.9382ZM89.0806 340.198C88.1602 340.198 87.3569 339.987 86.6708 339.565C85.9847 339.143 85.4521 338.553 85.0728 337.795C84.6935 337.036 84.5039 336.15 84.5039 335.136C84.5039 334.117 84.6935 333.227 85.0728 332.464C85.4521 331.701 85.9847 331.109 86.6708 330.687C87.3569 330.265 88.1602 330.054 89.0806 330.054C90.0011 330.054 90.8043 330.265 91.4904 330.687C92.1765 331.109 92.7092 331.701 93.0884 332.464C93.4677 333.227 93.6573 334.117 93.6573 335.136C93.6573 336.15 93.4677 337.036 93.0884 337.795C92.7092 338.553 92.1765 339.143 91.4904 339.565C90.8043 339.987 90.0011 340.198 89.0806 340.198ZM89.087 338.594C89.6836 338.594 90.1779 338.436 90.57 338.121C90.962 337.805 91.2518 337.386 91.4393 336.862C91.631 336.337 91.7269 335.76 91.7269 335.129C91.7269 334.503 91.631 333.928 91.4393 333.403C91.2518 332.875 90.962 332.451 90.57 332.131C90.1779 331.812 89.6836 331.652 89.087 331.652C88.4862 331.652 87.9876 331.812 87.5913 332.131C87.1992 332.451 86.9073 332.875 86.7156 333.403C86.5281 333.928 86.4343 334.503 86.4343 335.129C86.4343 335.76 86.5281 336.337 86.7156 336.862C86.9073 337.386 87.1992 337.805 87.5913 338.121C87.9876 338.436 88.4862 338.594 89.087 338.594ZM99.9071 343.886C99.1273 343.886 98.4561 343.784 97.8936 343.58C97.3354 343.375 96.8794 343.104 96.5257 342.768C96.1721 342.431 95.9078 342.063 95.7331 341.662L97.3759 340.984C97.4909 341.172 97.6444 341.37 97.8361 341.579C98.0321 341.792 98.2963 341.973 98.6287 342.122C98.9654 342.271 99.3979 342.346 99.9263 342.346C100.651 342.346 101.249 342.169 101.722 341.815C102.195 341.466 102.432 340.908 102.432 340.141V338.21H102.311C102.195 338.419 102.029 338.651 101.812 338.907C101.599 339.163 101.305 339.384 100.93 339.572C100.555 339.759 100.067 339.853 99.4661 339.853C98.6905 339.853 97.9917 339.672 97.3695 339.31C96.7516 338.943 96.2615 338.404 95.8993 337.692C95.5414 336.977 95.3624 336.097 95.3624 335.053C95.3624 334.009 95.5392 333.114 95.8929 332.368C96.2509 331.622 96.7409 331.051 97.3631 330.655C97.9853 330.254 98.6905 330.054 99.4789 330.054C100.088 330.054 100.58 330.156 100.955 330.361C101.33 330.561 101.622 330.795 101.831 331.064C102.044 331.332 102.208 331.569 102.323 331.773H102.464V330.182H104.337V340.217C104.337 341.061 104.141 341.754 103.749 342.295C103.357 342.836 102.826 343.237 102.157 343.496C101.492 343.756 100.742 343.886 99.9071 343.886ZM99.888 338.268C100.438 338.268 100.902 338.14 101.281 337.884C101.665 337.624 101.955 337.254 102.151 336.772C102.351 336.286 102.451 335.705 102.451 335.027C102.451 334.366 102.353 333.785 102.157 333.282C101.961 332.779 101.673 332.387 101.294 332.106C100.915 331.82 100.446 331.678 99.888 331.678C99.3127 331.678 98.8333 331.827 98.4498 332.125C98.0662 332.419 97.7765 332.82 97.5804 333.327C97.3887 333.834 97.2928 334.401 97.2928 335.027C97.2928 335.67 97.3908 336.235 97.5868 336.721C97.7828 337.207 98.0726 337.586 98.4561 337.859C98.8439 338.131 99.3212 338.268 99.888 338.268ZM106.9 340V330.182H108.811V340H106.9ZM107.865 328.667C107.533 328.667 107.247 328.556 107.009 328.335C106.774 328.109 106.657 327.84 106.657 327.529C106.657 327.214 106.774 326.945 107.009 326.724C107.247 326.498 107.533 326.385 107.865 326.385C108.198 326.385 108.481 326.498 108.715 326.724C108.954 326.945 109.073 327.214 109.073 327.529C109.073 327.84 108.954 328.109 108.715 328.335C108.481 328.556 108.198 328.667 107.865 328.667ZM113.294 334.17V340H111.382V330.182H113.217V331.78H113.338C113.564 331.26 113.918 330.842 114.4 330.527C114.885 330.212 115.497 330.054 116.234 330.054C116.903 330.054 117.489 330.195 117.992 330.476C118.495 330.753 118.885 331.166 119.162 331.716C119.439 332.266 119.577 332.945 119.577 333.755V340H117.666V333.985C117.666 333.273 117.48 332.717 117.11 332.317C116.739 331.912 116.23 331.71 115.582 331.71C115.139 331.71 114.745 331.805 114.4 331.997C114.059 332.189 113.788 332.47 113.588 332.841C113.392 333.207 113.294 333.651 113.294 334.17Z" fill="white"/>
<rect x="575" y="103" width="402" height="50" rx="4" fill="#004084"/>
<path d="M724.078 125.348C724.01 124.743 723.729 124.274 723.234 123.942C722.74 123.605 722.118 123.437 721.368 123.437C720.831 123.437 720.366 123.522 719.974 123.692C719.582 123.859 719.278 124.089 719.06 124.383C718.847 124.673 718.741 125.003 718.741 125.374C718.741 125.685 718.813 125.953 718.958 126.179C719.107 126.405 719.301 126.594 719.54 126.748C719.783 126.897 720.043 127.023 720.32 127.125C720.597 127.223 720.863 127.304 721.119 127.368L722.397 127.7C722.815 127.803 723.243 127.941 723.682 128.116C724.121 128.29 724.528 128.521 724.903 128.806C725.278 129.092 725.58 129.445 725.81 129.867C726.045 130.289 726.162 130.794 726.162 131.382C726.162 132.124 725.97 132.782 725.587 133.357C725.207 133.933 724.656 134.386 723.931 134.719C723.211 135.051 722.339 135.217 721.317 135.217C720.337 135.217 719.489 135.062 718.773 134.751C718.057 134.44 717.496 133.999 717.092 133.428C716.687 132.852 716.463 132.17 716.42 131.382H718.402C718.44 131.855 718.594 132.249 718.862 132.565C719.135 132.876 719.482 133.108 719.904 133.261C720.33 133.411 720.797 133.485 721.304 133.485C721.862 133.485 722.359 133.398 722.793 133.223C723.232 133.044 723.577 132.797 723.829 132.482C724.08 132.162 724.206 131.789 724.206 131.363C724.206 130.975 724.095 130.658 723.874 130.411C723.656 130.163 723.36 129.959 722.985 129.797C722.614 129.635 722.195 129.492 721.726 129.369L720.179 128.947C719.131 128.661 718.3 128.241 717.686 127.688C717.077 127.134 716.772 126.401 716.772 125.489C716.772 124.734 716.977 124.076 717.386 123.513C717.795 122.951 718.349 122.514 719.048 122.203C719.746 121.888 720.535 121.73 721.413 121.73C722.299 121.73 723.081 121.886 723.759 122.197C724.44 122.508 724.977 122.936 725.369 123.482C725.761 124.023 725.966 124.645 725.983 125.348H724.078ZM728.369 135V125.182H730.28V135H728.369ZM729.334 123.667C729.002 123.667 728.716 123.556 728.477 123.335C728.243 123.109 728.126 122.84 728.126 122.529C728.126 122.214 728.243 121.945 728.477 121.724C728.716 121.498 729.002 121.385 729.334 121.385C729.666 121.385 729.95 121.498 730.184 121.724C730.423 121.945 730.542 122.214 730.542 122.529C730.542 122.84 730.423 123.109 730.184 123.335C729.95 123.556 729.666 123.667 729.334 123.667ZM734.762 129.17V135H732.851V125.182H734.686V126.78H734.807C735.033 126.26 735.387 125.842 735.868 125.527C736.354 125.212 736.966 125.054 737.703 125.054C738.372 125.054 738.958 125.195 739.461 125.476C739.963 125.753 740.353 126.166 740.63 126.716C740.907 127.266 741.046 127.945 741.046 128.755V135H739.135V128.985C739.135 128.273 738.949 127.717 738.578 127.317C738.208 126.912 737.699 126.71 737.051 126.71C736.608 126.71 736.213 126.805 735.868 126.997C735.527 127.189 735.257 127.47 735.056 127.841C734.86 128.207 734.762 128.651 734.762 129.17ZM747.725 138.886C746.946 138.886 746.275 138.784 745.712 138.58C745.154 138.375 744.698 138.104 744.344 137.768C743.99 137.431 743.726 137.063 743.551 136.662L745.194 135.984C745.309 136.172 745.463 136.37 745.654 136.579C745.85 136.792 746.115 136.973 746.447 137.122C746.784 137.271 747.216 137.346 747.745 137.346C748.469 137.346 749.068 137.169 749.541 136.815C750.014 136.466 750.25 135.908 750.25 135.141V133.21H750.129C750.014 133.419 749.848 133.651 749.63 133.907C749.417 134.163 749.123 134.384 748.748 134.572C748.373 134.759 747.885 134.853 747.284 134.853C746.509 134.853 745.81 134.672 745.188 134.31C744.57 133.943 744.08 133.404 743.718 132.692C743.36 131.977 743.181 131.097 743.181 130.053C743.181 129.009 743.358 128.114 743.711 127.368C744.069 126.622 744.559 126.051 745.181 125.655C745.804 125.254 746.509 125.054 747.297 125.054C747.907 125.054 748.399 125.156 748.774 125.361C749.149 125.561 749.441 125.795 749.65 126.064C749.863 126.332 750.027 126.569 750.142 126.773H750.282V125.182H752.155V135.217C752.155 136.061 751.959 136.754 751.567 137.295C751.175 137.836 750.645 138.237 749.975 138.496C749.311 138.756 748.561 138.886 747.725 138.886ZM747.706 133.268C748.256 133.268 748.721 133.14 749.1 132.884C749.483 132.624 749.773 132.254 749.969 131.772C750.169 131.286 750.27 130.705 750.27 130.027C750.27 129.366 750.172 128.785 749.975 128.282C749.779 127.779 749.492 127.387 749.113 127.106C748.733 126.82 748.265 126.678 747.706 126.678C747.131 126.678 746.652 126.827 746.268 127.125C745.885 127.419 745.595 127.82 745.399 128.327C745.207 128.834 745.111 129.401 745.111 130.027C745.111 130.67 745.209 131.235 745.405 131.721C745.601 132.207 745.891 132.586 746.275 132.859C746.662 133.131 747.14 133.268 747.706 133.268ZM756.63 121.909V135H754.718V121.909H756.63ZM763.432 135.198C762.465 135.198 761.632 134.991 760.933 134.578C760.238 134.161 759.702 133.575 759.322 132.82C758.947 132.062 758.76 131.173 758.76 130.155C758.76 129.149 758.947 128.263 759.322 127.496C759.702 126.729 760.23 126.13 760.907 125.7C761.589 125.269 762.386 125.054 763.298 125.054C763.852 125.054 764.389 125.146 764.909 125.329C765.429 125.512 765.895 125.8 766.309 126.192C766.722 126.584 767.048 127.093 767.287 127.719C767.525 128.342 767.645 129.098 767.645 129.989V130.666H759.84V129.234H765.772C765.772 128.732 765.67 128.286 765.465 127.898C765.26 127.506 764.973 127.197 764.602 126.972C764.236 126.746 763.805 126.633 763.311 126.633C762.774 126.633 762.305 126.765 761.905 127.029C761.508 127.289 761.202 127.63 760.984 128.052C760.771 128.469 760.665 128.923 760.665 129.413V130.532C760.665 131.188 760.78 131.746 761.01 132.207C761.244 132.667 761.57 133.018 761.988 133.261C762.405 133.5 762.893 133.619 763.452 133.619C763.814 133.619 764.144 133.568 764.442 133.466C764.741 133.359 764.998 133.202 765.216 132.993C765.433 132.784 765.599 132.526 765.714 132.219L767.523 132.545C767.378 133.078 767.118 133.545 766.743 133.945C766.373 134.342 765.906 134.651 765.344 134.872C764.785 135.089 764.148 135.198 763.432 135.198ZM781.886 127.579L780.154 127.886C780.081 127.664 779.966 127.453 779.809 127.253C779.655 127.053 779.447 126.888 779.182 126.761C778.918 126.633 778.588 126.569 778.192 126.569C777.65 126.569 777.199 126.69 776.836 126.933C776.474 127.172 776.293 127.481 776.293 127.86C776.293 128.188 776.415 128.452 776.657 128.653C776.9 128.853 777.292 129.017 777.834 129.145L779.393 129.503C780.297 129.712 780.97 130.033 781.413 130.468C781.856 130.903 782.078 131.467 782.078 132.162C782.078 132.75 781.907 133.274 781.567 133.734C781.23 134.19 780.759 134.548 780.154 134.808C779.553 135.068 778.856 135.198 778.064 135.198C776.964 135.198 776.067 134.964 775.373 134.495C774.678 134.022 774.252 133.351 774.094 132.482L775.942 132.2C776.057 132.682 776.293 133.046 776.651 133.293C777.009 133.536 777.476 133.658 778.051 133.658C778.677 133.658 779.178 133.528 779.553 133.268C779.928 133.004 780.116 132.682 780.116 132.303C780.116 131.996 780.001 131.738 779.77 131.529C779.545 131.32 779.197 131.163 778.729 131.056L777.067 130.692C776.15 130.483 775.473 130.151 775.034 129.695C774.599 129.239 774.382 128.661 774.382 127.962C774.382 127.383 774.544 126.876 774.868 126.441C775.192 126.006 775.639 125.668 776.21 125.425C776.781 125.178 777.435 125.054 778.172 125.054C779.233 125.054 780.069 125.284 780.678 125.744C781.287 126.2 781.69 126.812 781.886 127.579ZM784.179 135V125.182H786.091V135H784.179ZM785.145 123.667C784.812 123.667 784.527 123.556 784.288 123.335C784.054 123.109 783.936 122.84 783.936 122.529C783.936 122.214 784.054 121.945 784.288 121.724C784.527 121.498 784.812 121.385 785.145 121.385C785.477 121.385 785.76 121.498 785.995 121.724C786.233 121.945 786.353 122.214 786.353 122.529C786.353 122.84 786.233 123.109 785.995 123.335C785.76 123.556 785.477 123.667 785.145 123.667ZM792.778 138.886C791.998 138.886 791.327 138.784 790.765 138.58C790.206 138.375 789.751 138.104 789.397 137.768C789.043 137.431 788.779 137.063 788.604 136.662L790.247 135.984C790.362 136.172 790.515 136.37 790.707 136.579C790.903 136.792 791.167 136.973 791.5 137.122C791.836 137.271 792.269 137.346 792.797 137.346C793.522 137.346 794.121 137.169 794.594 136.815C795.067 136.466 795.303 135.908 795.303 135.141V133.21H795.182C795.067 133.419 794.9 133.651 794.683 133.907C794.47 134.163 794.176 134.384 793.801 134.572C793.426 134.759 792.938 134.853 792.337 134.853C791.562 134.853 790.863 134.672 790.241 134.31C789.623 133.943 789.133 133.404 788.77 132.692C788.412 131.977 788.233 131.097 788.233 130.053C788.233 129.009 788.41 128.114 788.764 127.368C789.122 126.622 789.612 126.051 790.234 125.655C790.856 125.254 791.562 125.054 792.35 125.054C792.959 125.054 793.452 125.156 793.827 125.361C794.202 125.561 794.493 125.795 794.702 126.064C794.915 126.332 795.079 126.569 795.194 126.773H795.335V125.182H797.208V135.217C797.208 136.061 797.012 136.754 796.62 137.295C796.228 137.836 795.697 138.237 795.028 138.496C794.363 138.756 793.613 138.886 792.778 138.886ZM792.759 133.268C793.309 133.268 793.773 133.14 794.153 132.884C794.536 132.624 794.826 132.254 795.022 131.772C795.222 131.286 795.322 130.705 795.322 130.027C795.322 129.366 795.224 128.785 795.028 128.282C794.832 127.779 794.545 127.387 794.165 127.106C793.786 126.82 793.317 126.678 792.759 126.678C792.184 126.678 791.704 126.827 791.321 127.125C790.937 127.419 790.648 127.82 790.452 128.327C790.26 128.834 790.164 129.401 790.164 130.027C790.164 130.67 790.262 131.235 790.458 131.721C790.654 132.207 790.944 132.586 791.327 132.859C791.715 133.131 792.192 133.268 792.759 133.268ZM801.682 129.17V135H799.771V125.182H801.606V126.78H801.727C801.953 126.26 802.307 125.842 802.788 125.527C803.274 125.212 803.885 125.054 804.623 125.054C805.292 125.054 805.878 125.195 806.381 125.476C806.883 125.753 807.273 126.166 807.55 126.716C807.827 127.266 807.966 127.945 807.966 128.755V135H806.055V128.985C806.055 128.273 805.869 127.717 805.498 127.317C805.128 126.912 804.618 126.71 803.971 126.71C803.528 126.71 803.133 126.805 802.788 126.997C802.447 127.189 802.177 127.47 801.976 127.841C801.78 128.207 801.682 128.651 801.682 129.17ZM819.428 135.198C818.508 135.198 817.705 134.987 817.018 134.565C816.332 134.143 815.8 133.553 815.42 132.795C815.041 132.036 814.852 131.15 814.852 130.136C814.852 129.117 815.041 128.227 815.42 127.464C815.8 126.701 816.332 126.109 817.018 125.687C817.705 125.265 818.508 125.054 819.428 125.054C820.349 125.054 821.152 125.265 821.838 125.687C822.524 126.109 823.057 126.701 823.436 127.464C823.815 128.227 824.005 129.117 824.005 130.136C824.005 131.15 823.815 132.036 823.436 132.795C823.057 133.553 822.524 134.143 821.838 134.565C821.152 134.987 820.349 135.198 819.428 135.198ZM819.435 133.594C820.031 133.594 820.526 133.436 820.918 133.121C821.31 132.805 821.599 132.386 821.787 131.862C821.979 131.337 822.075 130.76 822.075 130.129C822.075 129.503 821.979 128.928 821.787 128.403C821.599 127.875 821.31 127.451 820.918 127.131C820.526 126.812 820.031 126.652 819.435 126.652C818.834 126.652 818.335 126.812 817.939 127.131C817.547 127.451 817.255 127.875 817.063 128.403C816.876 128.928 816.782 129.503 816.782 130.129C816.782 130.76 816.876 131.337 817.063 131.862C817.255 132.386 817.547 132.805 817.939 133.121C818.335 133.436 818.834 133.594 819.435 133.594ZM828.05 129.17V135H826.138V125.182H827.973V126.78H828.094C828.32 126.26 828.674 125.842 829.155 125.527C829.641 125.212 830.253 125.054 830.99 125.054C831.659 125.054 832.245 125.195 832.748 125.476C833.251 125.753 833.64 126.166 833.917 126.716C834.194 127.266 834.333 127.945 834.333 128.755V135H832.422V128.985C832.422 128.273 832.236 127.717 831.866 127.317C831.495 126.912 830.986 126.71 830.338 126.71C829.895 126.71 829.501 126.805 829.155 126.997C828.814 127.189 828.544 127.47 828.344 127.841C828.148 128.207 828.05 128.651 828.05 129.17Z" fill="white"/>
<rect x="505" y="18" width="3" height="384" fill="#D9D9D9"/>
</svg>
